<svg width="12" height="14" viewBox="0 0 12 14" fill="none" xmlns="http://www.w3.org/2000/svg">
<path d="M10.3219 1.7931H9.70471V1.14655C9.70471 0.790948 9.42699 0.5 9.08755 0.5C8.74811 0.5 8.47038 0.790948 8.47038 1.14655V1.7931H3.53308V1.14655C3.53308 0.790948 3.25536 0.5 2.91592 0.5C2.57648 0.5 2.29875 0.790948 2.29875 1.14655V1.7931H1.68159C0.996541 1.7931 0.453437 2.375 0.453437 3.08621L0.447266 12.1379C0.447266 12.4809 0.57731 12.8098 0.808791 13.0523C1.04027 13.2948 1.35423 13.431 1.68159 13.431H10.3219C11.0008 13.431 11.5562 12.8491 11.5562 12.1379V3.08621C11.5562 2.375 11.0008 1.7931 10.3219 1.7931ZM10.3219 11.4914C10.3219 11.847 10.0442 12.1379 9.70471 12.1379H2.29875C1.95931 12.1379 1.68159 11.847 1.68159 11.4914V5.02586H10.3219V11.4914ZM2.91592 6.31897H4.15024V7.61207H2.91592V6.31897ZM5.38457 6.31897H6.6189V7.61207H5.38457V6.31897ZM7.85322 6.31897H9.08755V7.61207H7.85322V6.31897Z" fill="#1D1C4A"/>
</svg>
