<svg width="32" height="29" viewBox="0 0 32 29" fill="none" xmlns="http://www.w3.org/2000/svg">
<path d="M28.11 2.5175C27.76 1.485 26.78 0.75 25.625 0.75H6.375C5.22 0.75 4.2575 1.485 3.89 2.5175L0.25 13V26.125C0.25 27.5775 1.4225 28.75 2.875 28.75C4.3275 28.75 5.5 27.5775 5.5 26.125V25.25H26.5V26.125C26.5 27.56 27.6725 28.75 29.125 28.75C30.56 28.75 31.75 27.5775 31.75 26.125V13L28.11 2.5175ZM8.125 20C6.6725 20 5.5 18.8275 5.5 17.375C5.5 15.9225 6.6725 14.75 8.125 14.75C9.5775 14.75 10.75 15.9225 10.75 17.375C10.75 18.8275 9.5775 20 8.125 20ZM23.875 20C22.4225 20 21.25 18.8275 21.25 17.375C21.25 15.9225 22.4225 14.75 23.875 14.75C25.3275 14.75 26.5 15.9225 26.5 17.375C26.5 18.8275 25.3275 20 23.875 20ZM5.1675 9.5L6.9875 4.25H24.995L26.815 9.5H5.1675Z" fill="#004164"/>
</svg>
