<svg width="35" height="38" viewBox="0 0 35 38" fill="none" xmlns="http://www.w3.org/2000/svg">
<path d="M22.75 24.25V26.875H25.375V24.25H22.75ZM7.4935 0.91375L0.931 6.16375C0.49525 6.51025 0.4375 7.10875 0.4375 7.63375V12.4375C0.4375 13.9154 0.92575 15.2778 1.75 16.375V36.0625C1.75 36.4106 1.88828 36.7444 2.13442 36.9906C2.38056 37.2367 2.7144 37.375 3.0625 37.375H7V22.9375C7 22.5894 7.13828 22.2556 7.38442 22.0094C7.63056 21.7633 7.9644 21.625 8.3125 21.625H16.1875C16.5356 21.625 16.8694 21.7633 17.1156 22.0094C17.3617 22.2556 17.5 22.5894 17.5 22.9375V37.375H31.9375C32.2856 37.375 32.6194 37.2367 32.8656 36.9906C33.1117 36.7444 33.25 36.4106 33.25 36.0625V16.375C34.0742 15.2778 34.5625 13.9154 34.5625 12.4375V7.62325C34.5625 7.09825 34.5047 6.51025 34.069 6.16375L27.5065 0.91375C27.2742 0.727357 26.9854 0.625531 26.6875 0.625H8.3125C8.01464 0.625531 7.72583 0.727357 7.4935 0.91375ZM3.0625 12.4375V8.5H10.9375V12.4375C10.9375 13.4818 10.5227 14.4833 9.78423 15.2217C9.04581 15.9602 8.04429 16.375 7 16.375C5.95571 16.375 4.95419 15.9602 4.21577 15.2217C3.47734 14.4833 3.0625 13.4818 3.0625 12.4375ZM13.5625 12.4375V8.5H21.4375V12.4375C21.4375 13.4818 21.0227 14.4833 20.2842 15.2217C19.5458 15.9602 18.5443 16.375 17.5 16.375C16.4557 16.375 15.4542 15.9602 14.7158 15.2217C13.9773 14.4833 13.5625 13.4818 13.5625 12.4375ZM24.0625 12.4375V8.5H31.9375V12.4375C31.9375 13.4818 31.5227 14.4833 30.7842 15.2217C30.0458 15.9602 29.0443 16.375 28 16.375C26.9557 16.375 25.9542 15.9602 25.2158 15.2217C24.4773 14.4833 24.0625 13.4818 24.0625 12.4375ZM5.49062 5.875L8.77188 3.25H12.3288L11.3444 5.875H5.49062ZM14.1453 5.875L15.1296 3.25H19.8363L20.7104 5.875H14.1453ZM22.603 3.25H26.2255L29.5068 5.875H23.4771L22.603 3.25ZM20.125 22.9375C20.125 22.5894 20.2633 22.2556 20.5094 22.0094C20.7556 21.7633 21.0894 21.625 21.4375 21.625H26.6875C27.0356 21.625 27.3694 21.7633 27.6156 22.0094C27.8617 22.2556 28 22.5894 28 22.9375V28.1875C28 28.5356 27.8617 28.8694 27.6156 29.1156C27.3694 29.3617 27.0356 29.5 26.6875 29.5H21.4375C21.0894 29.5 20.7556 29.3617 20.5094 29.1156C20.2633 28.8694 20.125 28.5356 20.125 28.1875V22.9375ZM9.625 37.375H14.875V24.25H9.625V37.375Z" fill="#004164"/>
</svg>
