<svg width="40" height="29" viewBox="0 0 40 29" fill="none" xmlns="http://www.w3.org/2000/svg">
<path d="M20.875 4.25C20.875 2.3075 22.4325 0.75 24.375 0.75H30.5C32.425 0.75 34 2.325 34 4.25V8.03C31.97 8.7475 30.5 10.6725 30.5 12.9475V16.5H20.875V4.25ZM9.5 12.93V16.5H19.125V4.25C19.125 2.3075 17.5675 0.75 15.625 0.75H9.5C7.575 0.75 6 2.325 6 4.25V8.0125C8.03 8.73 9.5 10.6725 9.5 12.93ZM35.155 9.5525C33.44 9.8325 32.25 11.46 32.25 13.21V18.25H7.75V13C7.75 12.0717 7.38125 11.1815 6.72487 10.5251C6.0685 9.86875 5.17826 9.5 4.25 9.5C3.32174 9.5 2.4315 9.86875 1.77513 10.5251C1.11875 11.1815 0.75 12.0717 0.75 13V21.75C0.75 23.675 2.325 25.25 4.25 25.25V28.75H7.75V25.25H32.25V28.75H35.75V25.25C37.675 25.25 39.25 23.675 39.25 21.75V13C39.25 10.8825 37.3425 9.185 35.155 9.5525Z" fill="#004164"/>
</svg>
