<svg width="43" height="36" viewBox="0 0 43 36" fill="none" xmlns="http://www.w3.org/2000/svg">
<path d="M29.9 6.5H34.1V35.9H8.9V6.5H13.1V4.4C13.1 3.28609 13.5425 2.2178 14.3302 1.43015C15.1178 0.642499 16.1861 0.200001 17.3 0.200001H25.7C26.8139 0.200001 27.8822 0.642499 28.6698 1.43015C29.4575 2.2178 29.9 3.28609 29.9 4.4V6.5ZM36.2 6.5H38.3C39.4139 6.5 40.4822 6.9425 41.2698 7.73015C42.0575 8.5178 42.5 9.58609 42.5 10.7V31.7C42.5 32.8139 42.0575 33.8822 41.2698 34.6698C40.4822 35.4575 39.4139 35.9 38.3 35.9H36.2V6.5ZM6.8 6.5V35.9H4.7C3.58609 35.9 2.5178 35.4575 1.73015 34.6698C0.942499 33.8822 0.5 32.8139 0.5 31.7V10.7C0.5 8.39 2.39 6.5 4.7 6.5H6.8ZM17.3 4.4V6.5H25.7V4.4H17.3Z" fill="#004164"/>
</svg>
