<svg width="36" height="36" viewBox="0 0 36 36" fill="none" xmlns="http://www.w3.org/2000/svg">
<path d="M19.75 18.3062V12.75C19.75 12.2542 19.5826 11.8382 19.2478 11.5022C18.9118 11.1674 18.4958 11 18 11C17.5042 11 17.0888 11.1674 16.754 11.5022C16.418 11.8382 16.25 12.2542 16.25 12.75V18C16.25 18.5833 16.3521 19.1229 16.5562 19.6187C16.7604 20.1146 17.0667 20.5667 17.475 20.975L21.1938 24.6938C21.5437 25.0437 21.9597 25.2188 22.4415 25.2188C22.9222 25.2188 23.3375 25.0437 23.6875 24.6938C24.0083 24.3438 24.1687 23.9284 24.1687 23.4478C24.1687 22.9659 24.0083 22.5646 23.6875 22.2437L19.75 18.3062ZM18 4C17.5042 4 17.0888 4.16742 16.754 4.50225C16.418 4.83825 16.25 5.25417 16.25 5.75C16.25 6.24583 16.418 6.66175 16.754 6.99775C17.0888 7.33258 17.5042 7.5 18 7.5C18.4958 7.5 18.9118 7.33258 19.2478 6.99775C19.5826 6.66175 19.75 6.24583 19.75 5.75C19.75 5.25417 19.5826 4.83825 19.2478 4.50225C18.9118 4.16742 18.4958 4 18 4ZM32 18C32 17.5042 31.832 17.0882 31.496 16.7522C31.1612 16.4174 30.7458 16.25 30.25 16.25C29.7542 16.25 29.3388 16.4174 29.004 16.7522C28.668 17.0882 28.5 17.5042 28.5 18C28.5 18.4958 28.668 18.9112 29.004 19.246C29.3388 19.582 29.7542 19.75 30.25 19.75C30.7458 19.75 31.1612 19.582 31.496 19.246C31.832 18.9112 32 18.4958 32 18ZM18 28.5C17.5042 28.5 17.0888 28.668 16.754 29.004C16.418 29.3388 16.25 29.7542 16.25 30.25C16.25 30.7458 16.418 31.1612 16.754 31.496C17.0888 31.832 17.5042 32 18 32C18.4958 32 18.9118 31.832 19.2478 31.496C19.5826 31.1612 19.75 30.7458 19.75 30.25C19.75 29.7542 19.5826 29.3388 19.2478 29.004C18.9118 28.668 18.4958 28.5 18 28.5ZM7.5 18C7.5 17.5042 7.33258 17.0882 6.99775 16.7522C6.66175 16.4174 6.24583 16.25 5.75 16.25C5.25417 16.25 4.83825 16.4174 4.50225 16.7522C4.16742 17.0882 4 17.5042 4 18C4 18.4958 4.16742 18.9112 4.50225 19.246C4.83825 19.582 5.25417 19.75 5.75 19.75C6.24583 19.75 6.66175 19.582 6.99775 19.246C7.33258 18.9112 7.5 18.4958 7.5 18ZM18 35.5C15.5792 35.5 13.3042 35.0403 11.175 34.121C9.04583 33.2028 7.19375 31.9563 5.61875 30.3813C4.04375 28.8063 2.79717 26.9542 1.879 24.825C0.959667 22.6958 0.5 20.4208 0.5 18C0.5 15.5792 0.959667 13.3042 1.879 11.175C2.79717 9.04583 4.04375 7.19375 5.61875 5.61875C7.19375 4.04375 9.04583 2.79658 11.175 1.87725C13.3042 0.959083 15.5792 0.5 18 0.5C20.4208 0.5 22.6958 0.959083 24.825 1.87725C26.9542 2.79658 28.8063 4.04375 30.3813 5.61875C31.9563 7.19375 33.2028 9.04583 34.121 11.175C35.0403 13.3042 35.5 15.5792 35.5 18C35.5 20.4208 35.0403 22.6958 34.121 24.825C33.2028 26.9542 31.9563 28.8063 30.3813 30.3813C28.8063 31.9563 26.9542 33.2028 24.825 34.121C22.6958 35.0403 20.4208 35.5 18 35.5Z" fill="#004164"/>
</svg>
