<svg width="27" height="36" viewBox="0 0 27 36" fill="none" xmlns="http://www.w3.org/2000/svg">
<path d="M24.5 35.5C24.0042 35.5 23.5888 35.332 23.254 34.996C22.918 34.6612 22.75 34.2458 22.75 33.75V21.5H21C20.0375 21.5 19.2138 21.157 18.529 20.471C17.843 19.7862 17.5 18.9625 17.5 18V9.25C17.5 6.82917 18.3534 4.76592 20.0603 3.06025C21.7659 1.35342 23.8292 0.5 26.25 0.5V33.75C26.25 34.2458 26.082 34.6612 25.746 34.996C25.4112 35.332 24.9958 35.5 24.5 35.5ZM7 35.5C6.50417 35.5 6.08825 35.332 5.75225 34.996C5.41742 34.6612 5.25 34.2458 5.25 33.75V19.4875C3.7625 19.0792 2.51592 18.2625 1.51025 17.0375C0.503416 15.8125 0 14.3833 0 12.75V2.25C0 1.75417 0.167417 1.33825 0.50225 1.00225C0.83825 0.667417 1.25417 0.5 1.75 0.5C2.24583 0.5 2.66175 0.667417 2.99775 1.00225C3.33258 1.33825 3.5 1.75417 3.5 2.25V12.75H5.25V2.25C5.25 1.75417 5.41742 1.33825 5.75225 1.00225C6.08825 0.667417 6.50417 0.5 7 0.5C7.49583 0.5 7.91175 0.667417 8.24775 1.00225C8.58258 1.33825 8.75 1.75417 8.75 2.25V12.75H10.5V2.25C10.5 1.75417 10.668 1.33825 11.004 1.00225C11.3388 0.667417 11.7542 0.5 12.25 0.5C12.7458 0.5 13.1618 0.667417 13.4978 1.00225C13.8326 1.33825 14 1.75417 14 2.25V12.75C14 14.3833 13.4966 15.8125 12.4897 17.0375C11.4841 18.2625 10.2375 19.0792 8.75 19.4875V33.75C8.75 34.2458 8.58258 34.6612 8.24775 34.996C7.91175 35.332 7.49583 35.5 7 35.5Z" fill="#004164"/>
</svg>
