<svg width="32" height="38" viewBox="0 0 32 38" fill="none" xmlns="http://www.w3.org/2000/svg">
<path d="M16 21.75C13.6794 21.75 11.4538 20.8281 9.81282 19.1872C8.17187 17.5462 7.25 15.3206 7.25 13H10.75C10.75 14.3924 11.3031 15.7277 12.2877 16.7123C13.2723 17.6969 14.6076 18.25 16 18.25C17.3924 18.25 18.7277 17.6969 19.7123 16.7123C20.6969 15.7277 21.25 14.3924 21.25 13H24.75C24.75 15.3206 23.8281 17.5462 22.1872 19.1872C20.5462 20.8281 18.3206 21.75 16 21.75ZM16 4.25C17.3924 4.25 18.7277 4.80312 19.7123 5.78769C20.6969 6.77226 21.25 8.10761 21.25 9.5H10.75C10.75 8.10761 11.3031 6.77226 12.2877 5.78769C13.2723 4.80312 14.6076 4.25 16 4.25ZM28.25 9.5H24.75C24.75 8.35093 24.5237 7.21312 24.0839 6.15152C23.6442 5.08992 22.9997 4.12533 22.1872 3.31282C21.3747 2.5003 20.4101 1.85578 19.3485 1.41605C18.2869 0.976325 17.1491 0.75 16 0.75C13.6794 0.75 11.4538 1.67187 9.81282 3.31282C8.17187 4.95376 7.25 7.17936 7.25 9.5H3.75C1.8075 9.5 0.25 11.0575 0.25 13V34C0.25 34.9283 0.618749 35.8185 1.27513 36.4749C1.9315 37.1312 2.82174 37.5 3.75 37.5H28.25C29.1783 37.5 30.0685 37.1312 30.7249 36.4749C31.3813 35.8185 31.75 34.9283 31.75 34V13C31.75 12.0717 31.3813 11.1815 30.7249 10.5251C30.0685 9.86875 29.1783 9.5 28.25 9.5Z" fill="#004164"/>
</svg>
