<svg width="36" height="35" viewBox="0 0 36 35" fill="none" xmlns="http://www.w3.org/2000/svg">
<path d="M19.7499 32.4875C19.8083 33.0417 19.6263 33.5159 19.2039 33.9103C18.7804 34.3034 18.3062 34.4562 17.7812 34.3688C12.7062 33.6104 8.68118 31.6487 5.70618 28.4835C2.73118 25.3195 1.03951 21.0104 0.631178 15.5563C0.572845 14.9729 0.740261 14.4841 1.13343 14.0898C1.52776 13.6966 2.01659 13.5438 2.59993 13.6313C7.93743 14.3604 12.0499 16.4167 14.9374 19.8C17.8249 23.1833 19.4291 27.4125 19.7499 32.4875ZM16.6437 1.20625C16.9937 0.710419 17.4528 0.469502 18.0209 0.483502C18.5903 0.498669 19.0499 0.754169 19.3999 1.25C20.7124 3.0875 21.8575 5.1 22.8352 7.2875C23.8117 9.475 24.402 11.3125 24.6062 12.8C23.4687 13.325 22.1999 14.1778 20.7999 15.3585C19.3999 16.5403 18.4812 17.4521 18.0437 18.0938C17.6353 17.4521 16.695 16.5112 15.2227 15.271C13.7492 14.032 12.502 13.2083 11.4812 12.8C11.7145 11.3417 12.3054 9.49658 13.2539 7.26475C14.2013 5.03408 15.3312 3.01459 16.6437 1.20625ZM33.5312 13.6313C34.0853 13.5729 34.552 13.7258 34.9312 14.0898C35.3103 14.4549 35.4853 14.9292 35.4562 15.5125C35.2228 20.2083 33.9471 24.0222 31.6289 26.954C29.3096 29.8847 26.502 31.9333 23.2062 33.1C23.1478 31.3208 22.8783 29.3013 22.3977 27.0415C21.9158 24.7805 21.1645 22.8333 20.1437 21.2C21.3978 19.275 23.2575 17.6125 25.7227 16.2125C28.1867 14.8125 30.7895 13.9521 33.5312 13.6313Z" fill="#004164"/>
</svg>
