<svg width="29" height="26" viewBox="0 0 29 26" fill="none" xmlns="http://www.w3.org/2000/svg">
<path d="M26.3347 13.7988C26.156 13.3392 25.6709 13.0405 25.0965 13.0405H15.9185C15.3313 13.0405 14.859 13.3392 14.6675 13.7988L12.8421 18.5205V24.8507C12.8421 25.2872 13.2506 25.6778 13.7357 25.6778H14.5271C15.0122 25.6778 15.3951 25.2413 15.3951 24.8047V23.3801H25.6071V24.8047C25.6071 25.2413 26.0028 25.6778 26.4879 25.6778H27.2665C27.7516 25.6778 28.1601 25.2872 28.1601 24.8507V18.5205L26.3347 13.7988ZM15.9185 14.1894H25.0965L26.4113 17.6359H14.6037L15.9185 14.1894ZM15.3951 21.0824C14.693 21.0824 14.1186 20.5655 14.1186 19.9336C14.1186 19.3017 14.693 18.7848 15.3951 18.7848C16.0972 18.7848 16.6716 19.3017 16.6716 19.9336C16.6716 20.5655 16.0972 21.0824 15.3951 21.0824ZM25.6071 21.0824C24.905 21.0824 24.3306 20.5655 24.3306 19.9336C24.3306 19.3017 24.905 18.7848 25.6071 18.7848C26.3091 18.7848 26.8836 19.3017 26.8836 19.9336C26.8836 20.5655 26.3091 21.0824 25.6071 21.0824ZM7.30212 15.9471L7.73613 18.7848L6.39581 20.0025L4.14917 16.3492L0.0771484 14.3157L1.43023 13.075L4.62148 13.5001L9.56152 9.05402L0.0771484 4.56203L1.88977 2.94216L13.6208 5.37771L18.5863 0.908697C19.3012 0.236621 20.5777 0.236621 21.2925 0.908697C22.0457 1.58652 22.0457 2.7009 21.2925 3.34425L16.3269 7.81327L17.3737 11.8917H15.9185C14.8079 11.8917 13.8505 12.4661 13.4804 13.3967L13.4421 13.4656L12.2805 11.4666L7.30212 15.9471Z" fill="#26238D"/>
</svg>
