<svg width="29" height="25" viewBox="0 0 29 25" fill="none" xmlns="http://www.w3.org/2000/svg">
<path d="M2.80788 24.6142C2.41004 24.6142 2.07632 24.4794 1.80673 24.2099C1.53807 23.9412 1.40374 23.6079 1.40374 23.2101C1.40374 22.8123 1.53807 22.479 1.80673 22.2103C2.07632 21.9408 2.41004 21.806 2.80788 21.806H25.2742C25.6721 21.806 26.0058 21.9408 26.2754 22.2103C26.544 22.479 26.6784 22.8123 26.6784 23.2101C26.6784 23.6079 26.544 23.9412 26.2754 24.2099C26.0058 24.4794 25.6721 24.6142 25.2742 24.6142H2.80788ZM5.01941 17.3127C4.71518 17.4063 4.42265 17.3946 4.14182 17.2776C3.86099 17.1606 3.63867 16.9616 3.47485 16.6808L0.806974 12.1524C0.57295 11.778 0.53223 11.427 0.684814 11.0993C0.836461 10.7717 1.13461 10.5611 1.57925 10.4675C1.74307 10.4207 1.93029 10.4324 2.14091 10.5026C2.35153 10.5728 2.51535 10.6664 2.63236 10.7834L4.63327 12.5386L11.3732 10.7132L6.63418 2.67446C6.37675 2.22982 6.32995 1.80249 6.49376 1.39248C6.65758 0.983404 6.98522 0.696959 7.47667 0.533142C7.73409 0.439532 8.02662 0.433447 8.35426 0.514888C8.68189 0.597264 8.95102 0.732062 9.16164 0.919282L18.0429 8.88781L25.0636 6.99221C25.8125 6.80499 26.4911 6.95711 27.0996 7.44856C27.7081 7.94001 28.0123 8.58358 28.0123 9.37926C28.0123 9.89411 27.8546 10.3505 27.5391 10.7483C27.2227 11.1461 26.8188 11.4153 26.3273 11.5557L5.01941 17.3127Z" fill="#26238D"/>
</svg>
